<mxfile host="app.diagrams.net" modified="2022-05-18T12:52:03.199Z" agent="5.0 (Macintosh; Intel Mac OS X 10_15_7) AppleWebKit/537.36 (KHTML, like Gecko) Chrome/101.0.4951.64 Safari/537.36" etag="jaX2R3sVk30sZA9pvcD_" version="18.0.7" type="github" pages="3">
  <diagram id="QzjZwZWA6k2g2hxa9Z9o" name="New Flow">
    <mxGraphModel dx="866" dy="486" grid="1" gridSize="10" guides="1" tooltips="1" connect="1" arrows="1" fold="1" page="1" pageScale="1" pageWidth="850" pageHeight="1100" math="0" shadow="0">
      <root>
        <mxCell id="0" />
        <mxCell id="1" parent="0" />
        <mxCell id="hnIYzhW1CXsdD_KqWwHf-1" value="To Verify &lt;br&gt;phone numer" style="edgeStyle=orthogonalEdgeStyle;rounded=0;orthogonalLoop=1;jettySize=auto;html=1;entryX=0;entryY=0.5;entryDx=0;entryDy=0;" edge="1" parent="1" source="hnIYzhW1CXsdD_KqWwHf-2">
          <mxGeometry relative="1" as="geometry">
            <mxPoint x="450" y="80" as="targetPoint" />
          </mxGeometry>
        </mxCell>
        <mxCell id="hnIYzhW1CXsdD_KqWwHf-2" value="Get Web3 account&lt;br&gt;(Seed or mnemonic)" style="rounded=1;whiteSpace=wrap;html=1;align=center;" vertex="1" parent="1">
          <mxGeometry x="210" y="35" width="140" height="90" as="geometry" />
        </mxCell>
        <mxCell id="hnIYzhW1CXsdD_KqWwHf-3" style="edgeStyle=orthogonalEdgeStyle;rounded=0;orthogonalLoop=1;jettySize=auto;html=1;entryX=0;entryY=0.5;entryDx=0;entryDy=0;" edge="1" parent="1" source="hnIYzhW1CXsdD_KqWwHf-5" target="hnIYzhW1CXsdD_KqWwHf-2">
          <mxGeometry relative="1" as="geometry" />
        </mxCell>
        <mxCell id="hnIYzhW1CXsdD_KqWwHf-4" value="Sign Up" style="edgeLabel;html=1;align=center;verticalAlign=middle;resizable=0;points=[];" vertex="1" connectable="0" parent="hnIYzhW1CXsdD_KqWwHf-3">
          <mxGeometry x="-0.2222" y="2" relative="1" as="geometry">
            <mxPoint x="5" y="2" as="offset" />
          </mxGeometry>
        </mxCell>
        <mxCell id="hnIYzhW1CXsdD_KqWwHf-5" value="Student" style="whiteSpace=wrap;html=1;aspect=fixed;" vertex="1" parent="1">
          <mxGeometry x="40" y="40" width="80" height="80" as="geometry" />
        </mxCell>
        <mxCell id="hnIYzhW1CXsdD_KqWwHf-6" style="edgeStyle=orthogonalEdgeStyle;rounded=0;orthogonalLoop=1;jettySize=auto;html=1;fontColor=#00FF00;" edge="1" parent="1" source="hnIYzhW1CXsdD_KqWwHf-7" target="hnIYzhW1CXsdD_KqWwHf-11">
          <mxGeometry relative="1" as="geometry" />
        </mxCell>
        <mxCell id="hnIYzhW1CXsdD_KqWwHf-7" value="&lt;font color=&quot;#00ff00&quot;&gt;If data&lt;/font&gt;&lt;br&gt;&lt;br&gt;Query= (userN, email, id, stID, etc)&lt;br&gt;and display on Screen" style="rounded=1;whiteSpace=wrap;html=1;align=center;" vertex="1" parent="1">
          <mxGeometry x="450" y="35" width="140" height="90" as="geometry" />
        </mxCell>
        <mxCell id="hnIYzhW1CXsdD_KqWwHf-8" style="edgeStyle=orthogonalEdgeStyle;rounded=0;orthogonalLoop=1;jettySize=auto;html=1;entryX=0.5;entryY=0;entryDx=0;entryDy=0;fontColor=#00FF00;" edge="1" parent="1" source="hnIYzhW1CXsdD_KqWwHf-9" target="hnIYzhW1CXsdD_KqWwHf-13">
          <mxGeometry relative="1" as="geometry" />
        </mxCell>
        <mxCell id="hnIYzhW1CXsdD_KqWwHf-9" value="Blockchain&lt;br&gt;&lt;br&gt;Ex: (kilt.io)" style="shape=cylinder3;whiteSpace=wrap;html=1;boundedLbl=1;backgroundOutline=1;size=15;" vertex="1" parent="1">
          <mxGeometry x="730" y="130" width="100" height="133.33" as="geometry" />
        </mxCell>
        <mxCell id="hnIYzhW1CXsdD_KqWwHf-10" style="edgeStyle=orthogonalEdgeStyle;rounded=0;orthogonalLoop=1;jettySize=auto;html=1;fontColor=#00FF00;" edge="1" parent="1" source="hnIYzhW1CXsdD_KqWwHf-11">
          <mxGeometry relative="1" as="geometry">
            <mxPoint x="780" y="130" as="targetPoint" />
          </mxGeometry>
        </mxCell>
        <mxCell id="hnIYzhW1CXsdD_KqWwHf-11" value="Meant or Upload Data to Blockchian" style="rounded=1;whiteSpace=wrap;html=1;fontColor=#FFFFFF;labelBackgroundColor=#99CCFF;fillColor=#99CCFF;" vertex="1" parent="1">
          <mxGeometry x="620" y="40" width="140" height="80" as="geometry" />
        </mxCell>
        <mxCell id="hnIYzhW1CXsdD_KqWwHf-12" style="edgeStyle=orthogonalEdgeStyle;rounded=0;orthogonalLoop=1;jettySize=auto;html=1;entryX=1;entryY=0.5;entryDx=0;entryDy=0;fontColor=#000000;" edge="1" parent="1" source="hnIYzhW1CXsdD_KqWwHf-13" target="hnIYzhW1CXsdD_KqWwHf-14">
          <mxGeometry relative="1" as="geometry" />
        </mxCell>
        <mxCell id="hnIYzhW1CXsdD_KqWwHf-13" value="1. Explore kilt.io .&lt;br&gt;2. Come up to Team with Flow chart and Wireframe." style="whiteSpace=wrap;html=1;aspect=fixed;align=left;" vertex="1" parent="1">
          <mxGeometry x="715" y="320" width="130" height="130" as="geometry" />
        </mxCell>
        <mxCell id="hnIYzhW1CXsdD_KqWwHf-14" value="&lt;font color=&quot;#000000&quot;&gt;Start design UIs to fit with Blockchain function&lt;/font&gt;" style="rounded=1;whiteSpace=wrap;html=1;fontColor=#00FF00;" vertex="1" parent="1">
          <mxGeometry x="510" y="200" width="160" height="90" as="geometry" />
        </mxCell>
      </root>
    </mxGraphModel>
  </diagram>
  <diagram id="L8e0pqVhwaGxmal6kiHk" name="Registration">
    <mxGraphModel dx="866" dy="486" grid="1" gridSize="10" guides="1" tooltips="1" connect="1" arrows="1" fold="1" page="1" pageScale="1" pageWidth="850" pageHeight="1100" math="0" shadow="0">
      <root>
        <mxCell id="0" />
        <mxCell id="1" parent="0" />
        <mxCell id="9-xmGwIWZLtc9KQb_65q-4" style="edgeStyle=orthogonalEdgeStyle;rounded=0;orthogonalLoop=1;jettySize=auto;html=1;entryX=0;entryY=0.5;entryDx=0;entryDy=0;" parent="1" source="9-xmGwIWZLtc9KQb_65q-1" target="9-xmGwIWZLtc9KQb_65q-3" edge="1">
          <mxGeometry relative="1" as="geometry" />
        </mxCell>
        <mxCell id="9-xmGwIWZLtc9KQb_65q-1" value="Sign Up" style="ellipse;whiteSpace=wrap;html=1;" parent="1" vertex="1">
          <mxGeometry x="131" y="405" width="120" height="80" as="geometry" />
        </mxCell>
        <mxCell id="9-xmGwIWZLtc9KQb_65q-7" style="edgeStyle=orthogonalEdgeStyle;rounded=0;orthogonalLoop=1;jettySize=auto;html=1;entryX=0;entryY=0.5;entryDx=0;entryDy=0;" parent="1" source="9-xmGwIWZLtc9KQb_65q-3" target="9-xmGwIWZLtc9KQb_65q-5" edge="1">
          <mxGeometry relative="1" as="geometry" />
        </mxCell>
        <mxCell id="9-xmGwIWZLtc9KQb_65q-3" value="Param:&lt;br&gt;- email&lt;br&gt;- password" style="whiteSpace=wrap;html=1;aspect=fixed;" parent="1" vertex="1">
          <mxGeometry x="331" y="405" width="80" height="80" as="geometry" />
        </mxCell>
        <mxCell id="9-xmGwIWZLtc9KQb_65q-10" style="edgeStyle=orthogonalEdgeStyle;rounded=0;orthogonalLoop=1;jettySize=auto;html=1;entryX=0;entryY=0.5;entryDx=0;entryDy=0;" parent="1" source="9-xmGwIWZLtc9KQb_65q-5" target="9-xmGwIWZLtc9KQb_65q-8" edge="1">
          <mxGeometry relative="1" as="geometry" />
        </mxCell>
        <mxCell id="9-xmGwIWZLtc9KQb_65q-5" value="- email&lt;br&gt;-referal code (generate by code)" style="whiteSpace=wrap;html=1;aspect=fixed;" parent="1" vertex="1">
          <mxGeometry x="461" y="405" width="80" height="80" as="geometry" />
        </mxCell>
        <mxCell id="9-xmGwIWZLtc9KQb_65q-6" value="Set referal" style="text;html=1;strokeColor=none;fillColor=none;align=center;verticalAlign=middle;whiteSpace=wrap;rounded=0;" parent="1" vertex="1">
          <mxGeometry x="471" y="355" width="60" height="30" as="geometry" />
        </mxCell>
        <mxCell id="9-xmGwIWZLtc9KQb_65q-8" value="- email&lt;br&gt;-referal code (generate by code)" style="whiteSpace=wrap;html=1;aspect=fixed;" parent="1" vertex="1">
          <mxGeometry x="591" y="405" width="80" height="80" as="geometry" />
        </mxCell>
        <mxCell id="9-xmGwIWZLtc9KQb_65q-9" value="Link Email with Web3 address&amp;nbsp;" style="text;html=1;strokeColor=none;fillColor=none;align=center;verticalAlign=middle;whiteSpace=wrap;rounded=0;" parent="1" vertex="1">
          <mxGeometry x="571" y="355" width="120" height="30" as="geometry" />
        </mxCell>
        <mxCell id="9-xmGwIWZLtc9KQb_65q-13" style="edgeStyle=orthogonalEdgeStyle;rounded=0;orthogonalLoop=1;jettySize=auto;html=1;entryX=0;entryY=0.5;entryDx=0;entryDy=0;" parent="1" source="9-xmGwIWZLtc9KQb_65q-11" target="9-xmGwIWZLtc9KQb_65q-12" edge="1">
          <mxGeometry relative="1" as="geometry" />
        </mxCell>
        <mxCell id="9-xmGwIWZLtc9KQb_65q-11" value="Login" style="ellipse;whiteSpace=wrap;html=1;" parent="1" vertex="1">
          <mxGeometry x="130" y="545" width="120" height="80" as="geometry" />
        </mxCell>
        <mxCell id="9-xmGwIWZLtc9KQb_65q-15" value="If have account &lt;br&gt;and correct password" style="edgeStyle=orthogonalEdgeStyle;rounded=0;orthogonalLoop=1;jettySize=auto;html=1;entryX=0;entryY=0.5;entryDx=0;entryDy=0;" parent="1" source="9-xmGwIWZLtc9KQb_65q-12" target="9-xmGwIWZLtc9KQb_65q-14" edge="1">
          <mxGeometry relative="1" as="geometry">
            <Array as="points">
              <mxPoint x="531" y="585" />
              <mxPoint x="531" y="585" />
            </Array>
          </mxGeometry>
        </mxCell>
        <mxCell id="9-xmGwIWZLtc9KQb_65q-16" style="edgeStyle=orthogonalEdgeStyle;rounded=0;orthogonalLoop=1;jettySize=auto;html=1;entryX=0.5;entryY=0;entryDx=0;entryDy=0;" parent="1" source="9-xmGwIWZLtc9KQb_65q-12" target="9-xmGwIWZLtc9KQb_65q-17" edge="1">
          <mxGeometry relative="1" as="geometry">
            <mxPoint x="371" y="686" as="targetPoint" />
          </mxGeometry>
        </mxCell>
        <mxCell id="9-xmGwIWZLtc9KQb_65q-19" value="Failed" style="edgeLabel;html=1;align=center;verticalAlign=middle;resizable=0;points=[];" parent="9-xmGwIWZLtc9KQb_65q-16" vertex="1" connectable="0">
          <mxGeometry x="-0.1833" y="1" relative="1" as="geometry">
            <mxPoint as="offset" />
          </mxGeometry>
        </mxCell>
        <mxCell id="9-xmGwIWZLtc9KQb_65q-12" value="Param:&lt;br&gt;- email&lt;br&gt;- password" style="whiteSpace=wrap;html=1;aspect=fixed;" parent="1" vertex="1">
          <mxGeometry x="330" y="545" width="80" height="80" as="geometry" />
        </mxCell>
        <mxCell id="9-xmGwIWZLtc9KQb_65q-14" value="Mesage Success" style="rounded=1;whiteSpace=wrap;html=1;" parent="1" vertex="1">
          <mxGeometry x="601" y="555" width="120" height="60" as="geometry" />
        </mxCell>
        <mxCell id="9-xmGwIWZLtc9KQb_65q-17" value="Message failed" style="rounded=1;whiteSpace=wrap;html=1;" parent="1" vertex="1">
          <mxGeometry x="310" y="685" width="120" height="60" as="geometry" />
        </mxCell>
      </root>
    </mxGraphModel>
  </diagram>
  <diagram id="HRFAmHWYue0PKXw_82Kg" name="Home Page">
    <mxGraphModel dx="542" dy="335" grid="1" gridSize="10" guides="1" tooltips="1" connect="1" arrows="1" fold="1" page="1" pageScale="1" pageWidth="850" pageHeight="1100" math="0" shadow="0">
      <root>
        <mxCell id="0" />
        <mxCell id="1" parent="0" />
        <mxCell id="5xdydP0CbMvAg5wdPr20-1" style="edgeStyle=orthogonalEdgeStyle;rounded=0;orthogonalLoop=1;jettySize=auto;html=1;entryX=0;entryY=0.5;entryDx=0;entryDy=0;" edge="1" parent="1" source="5xdydP0CbMvAg5wdPr20-2" target="5xdydP0CbMvAg5wdPr20-6">
          <mxGeometry relative="1" as="geometry" />
        </mxCell>
        <mxCell id="5xdydP0CbMvAg5wdPr20-2" value="Scan QR&amp;nbsp;" style="ellipse;whiteSpace=wrap;html=1;" vertex="1" parent="1">
          <mxGeometry x="120" y="174.5" width="120" height="80" as="geometry" />
        </mxCell>
        <mxCell id="5xdydP0CbMvAg5wdPr20-3" value="If have account &lt;br&gt;and correct password" style="edgeStyle=orthogonalEdgeStyle;rounded=0;orthogonalLoop=1;jettySize=auto;html=1;entryX=0;entryY=0.5;entryDx=0;entryDy=0;" edge="1" parent="1" source="5xdydP0CbMvAg5wdPr20-6" target="5xdydP0CbMvAg5wdPr20-7">
          <mxGeometry relative="1" as="geometry">
            <Array as="points">
              <mxPoint x="521" y="214.5" />
              <mxPoint x="521" y="214.5" />
            </Array>
          </mxGeometry>
        </mxCell>
        <mxCell id="5xdydP0CbMvAg5wdPr20-4" style="edgeStyle=orthogonalEdgeStyle;rounded=0;orthogonalLoop=1;jettySize=auto;html=1;entryX=0.5;entryY=0;entryDx=0;entryDy=0;" edge="1" parent="1" source="5xdydP0CbMvAg5wdPr20-6" target="5xdydP0CbMvAg5wdPr20-8">
          <mxGeometry relative="1" as="geometry">
            <mxPoint x="361" y="315.5" as="targetPoint" />
          </mxGeometry>
        </mxCell>
        <mxCell id="5xdydP0CbMvAg5wdPr20-5" value="Failed" style="edgeLabel;html=1;align=center;verticalAlign=middle;resizable=0;points=[];" vertex="1" connectable="0" parent="5xdydP0CbMvAg5wdPr20-4">
          <mxGeometry x="-0.1833" y="1" relative="1" as="geometry">
            <mxPoint as="offset" />
          </mxGeometry>
        </mxCell>
        <mxCell id="5xdydP0CbMvAg5wdPr20-6" value="+ Api: https://auth-student.selendra.org/&lt;br&gt;+ Endpoint: /auth/qr-scan&lt;br&gt;Param:&lt;br&gt;- id&lt;br&gt;- email&lt;br&gt;- pubKey" style="whiteSpace=wrap;html=1;aspect=fixed;align=left;" vertex="1" parent="1">
          <mxGeometry x="286.5" y="140" width="149" height="149" as="geometry" />
        </mxCell>
        <mxCell id="5xdydP0CbMvAg5wdPr20-7" value="Mesage Success" style="rounded=1;whiteSpace=wrap;html=1;" vertex="1" parent="1">
          <mxGeometry x="591" y="184.5" width="120" height="60" as="geometry" />
        </mxCell>
        <mxCell id="5xdydP0CbMvAg5wdPr20-8" value="Message failed" style="rounded=1;whiteSpace=wrap;html=1;" vertex="1" parent="1">
          <mxGeometry x="300" y="314.5" width="120" height="60" as="geometry" />
        </mxCell>
      </root>
    </mxGraphModel>
  </diagram>
</mxfile>
